<?xml version="1.0" standalone="no"?>
<!DOCTYPE svg PUBLIC "-//W3C//DTD SVG 20010904//EN"
 "http://www.w3.org/TR/2001/REC-SVG-20010904/DTD/svg10.dtd">
<svg version="1.0" xmlns="http://www.w3.org/2000/svg"
 width="960.000000pt" height="960.000000pt" viewBox="0 0 960.000000 960.000000"
 preserveAspectRatio="xMidYMid meet">
<metadata>
Created by potrace 1.14, written by Peter Selinger 2001-2017
</metadata>
<g transform="translate(0.000000,960.000000) scale(0.100000,-0.100000)"
fill="#000000" stroke="none">
<path d="M4546 8941 c12 -13 64 -22 64 -11 0 10 -26 20 -53 20 -13 0 -17 -4
-11 -9z"/>
<path d="M4750 8921 c0 -12 70 -32 83 -24 13 8 -11 21 -51 28 -18 3 -32 1 -32
-4z"/>
<path d="M4073 8886 c-45 -15 -60 -32 -35 -38 22 -6 82 16 82 31 0 17 -14 19
-47 7z"/>
<path d="M5005 8864 c56 -26 96 -33 73 -11 -17 15 -78 37 -104 36 -11 0 1 -10
31 -25z"/>
<path d="M4290 8870 c-13 -9 -13 -12 3 -25 15 -10 24 -11 43 -3 14 6 23 16 21
22 -5 15 -49 19 -67 6z"/>
<path d="M4547 8858 c-25 -14 -21 -36 11 -51 30 -16 83 -12 94 6 18 29 -68 66
-105 45z"/>
<path d="M5181 8834 c6 -8 16 -14 21 -14 5 0 28 -9 51 -19 23 -11 44 -19 47
-18 3 0 15 -5 27 -12 19 -9 22 -9 17 3 -5 13 -88 54 -124 61 -8 2 -15 4 -15 5
0 1 -8 3 -18 5 -15 3 -16 1 -6 -11z"/>
<path d="M4813 8824 c-16 -7 2 -46 28 -62 30 -19 97 -26 115 -12 13 11 12 15
-3 33 -30 32 -105 55 -140 41z"/>
<path d="M5090 8776 c-18 -23 14 -61 75 -91 53 -27 105 -30 112 -8 8 25 -75
87 -130 97 -15 2 -31 7 -36 10 -5 3 -14 -1 -21 -8z"/>
<path d="M5410 8765 c7 -8 19 -15 26 -15 8 0 14 -4 14 -10 0 -5 6 -10 14 -10
7 0 35 -12 60 -26 38 -21 50 -24 59 -14 10 10 8 12 -5 7 -10 -4 -18 -3 -18 1
0 7 -18 17 -109 58 -35 16 -49 19 -41 9z"/>
<path d="M3896 8723 c-29 -15 -32 -25 -12 -42 18 -16 83 10 83 32 0 21 -39 27
-71 10z"/>
<path d="M4208 8713 c-22 -6 -32 -39 -17 -56 17 -18 74 -9 96 15 17 19 17 20
-2 34 -18 14 -43 16 -77 7z"/>
<path d="M5350 8707 c0 -17 67 -85 92 -93 10 -3 18 -9 18 -13 0 -15 108 -43
125 -34 14 8 10 15 -24 49 -62 63 -211 127 -211 91z"/>
<path d="M6999 8706 c-4 -4 -34 -7 -184 -22 -22 -2 -56 -5 -75 -8 -98 -11
-167 -19 -181 -20 -23 -1 -13 -21 19 -37 15 -8 29 -16 32 -20 3 -3 34 -25 70
-50 36 -24 67 -46 70 -49 3 -3 43 -30 90 -60 47 -30 88 -59 92 -65 14 -19 19
3 7 31 -6 16 -15 38 -20 49 -4 11 -11 30 -14 43 -6 22 -5 23 32 18 32 -5 35
-4 18 6 -11 6 -27 20 -36 30 -9 10 -21 18 -28 18 -6 0 -11 4 -11 9 0 5 -21 12
-47 16 -27 5 -55 10 -63 12 -8 2 -32 7 -53 10 -21 3 -50 9 -65 13 -28 9 44 6
118 -5 94 -14 120 -14 128 1 5 9 11 14 13 13 5 -4 99 60 99 66 0 6 -5 6 -11 1z"/>
<path d="M4509 8682 c-65 -45 52 -122 126 -82 34 18 31 64 -5 81 -36 18 -97
18 -121 1z"/>
<path d="M4875 8652 c-102 -21 -14 -145 97 -138 47 4 58 12 58 45 0 51 -91
106 -155 93z"/>
<path d="M5622 8608 c20 -30 116 -108 168 -136 46 -24 80 -29 80 -10 0 20
-134 128 -159 128 -6 0 -11 4 -11 8 0 9 -58 32 -79 32 -11 0 -10 -5 1 -22z"/>
<path d="M5200 8592 c-48 -15 -41 -73 13 -117 18 -14 37 -30 44 -35 18 -14 73
-25 115 -21 29 2 41 37 23 70 -31 61 -143 120 -195 103z"/>
<path d="M7055 8531 c17 -11 36 -21 43 -21 6 0 12 -5 12 -12 0 -6 3 -9 6 -5 9
9 147 -87 203 -141 43 -42 139 -172 127 -172 -3 0 2 -16 10 -35 27 -65 25
-227 -3 -295 -3 -8 -8 -23 -10 -34 -13 -67 -144 -271 -258 -401 -103 -118
-288 -296 -297 -287 -5 5 -10 18 -13 30 -2 11 -8 30 -14 41 -6 11 -13 36 -16
56 -5 40 -53 166 -111 292 -25 54 -42 79 -51 76 -7 -3 -13 0 -13 6 0 7 -5 17
-10 24 -6 7 -28 37 -48 68 -64 98 -81 115 -100 102 -18 -11 -19 -23 -8 -70 6
-25 5 -26 -6 -8 -7 11 -13 22 -13 25 -3 21 -52 95 -91 139 -52 58 -115 95
-145 86 -64 -21 32 -238 144 -326 47 -38 56 -51 18 -28 -41 26 -95 -13 -103
-73 -2 -15 -7 -30 -10 -34 -4 -3 -5 2 -4 13 2 10 -6 40 -18 68 -68 165 -249
249 -301 140 -33 -71 6 -202 84 -282 103 -105 218 -102 238 6 6 34 13 40 14
13 3 -43 36 -116 82 -180 47 -65 48 -68 26 -69 -72 -6 -113 -66 -113 -167 0
-95 8 -122 60 -217 16 -30 76 -79 95 -79 10 0 10 -3 2 -11 -9 -9 -18 -6 -37 8
-14 12 -37 19 -53 17 -15 -1 -33 -2 -40 -3 -21 -2 -71 -57 -87 -96 -14 -32
-23 -69 -25 -102 -1 -9 -123 -103 -177 -136 -7 -4 -24 3 -39 15 -49 39 -141
26 -188 -27 -32 -36 -59 -98 -62 -142 -4 -47 -19 -73 -40 -73 -8 0 -15 -3 -17
-7 -5 -12 -66 -53 -78 -53 -5 0 -10 -3 -10 -8 0 -4 -17 -16 -37 -27 -21 -11
-41 -24 -45 -30 -5 -6 -8 -6 -8 2 0 23 -59 54 -107 57 -43 2 -51 -1 -90 -36
-47 -44 -65 -86 -65 -152 l0 -44 -86 -54 c-48 -29 -94 -57 -103 -63 -9 -5 -35
-20 -59 -33 -41 -23 -43 -23 -64 -5 -64 56 -167 -5 -160 -95 3 -35 -6 -43
-116 -104 -25 -14 -87 -49 -138 -77 -51 -29 -100 -54 -108 -55 -8 -1 -24 -10
-36 -20 -64 -55 -862 -463 -1293 -661 -44 -20 -103 -48 -131 -61 -28 -13 -56
-24 -62 -24 -7 0 -12 -4 -12 -10 0 -5 -6 -10 -13 -10 -12 0 -80 -29 -119 -50
-10 -6 -24 -10 -31 -10 -7 0 -18 -5 -25 -12 -6 -6 -17 -13 -24 -14 -7 -1 -63
-25 -125 -52 -62 -27 -114 -47 -117 -44 -4 3 -6 0 -6 -6 0 -7 -4 -12 -9 -12
-5 0 -22 -5 -38 -12 -15 -6 -30 -12 -33 -13 -3 -1 -22 -9 -44 -18 -21 -9 -40
-17 -42 -17 -2 0 -27 -11 -56 -24 -88 -39 -333 -136 -349 -137 -8 -1 2 -4 21
-8 19 -3 521 -6 1116 -5 l1080 0 105 79 c57 43 106 83 107 87 2 4 10 8 17 8 7
0 15 3 17 8 2 4 50 43 108 87 58 43 128 97 156 120 28 22 86 67 129 100 43 33
84 66 91 73 7 6 16 12 21 12 5 0 29 18 53 40 65 58 68 61 145 120 93 73 85 67
124 100 44 38 51 38 44 -5 -5 -31 -3 -36 21 -45 74 -28 194 120 141 173 -23
24 -19 31 39 75 30 23 67 53 82 67 15 14 33 25 40 25 7 0 46 33 86 73 41 39
85 81 99 92 13 11 51 43 84 70 94 79 99 83 93 65 -7 -20 27 -86 47 -94 63 -24
146 31 203 133 22 39 27 123 8 158 -15 31 -15 32 15 57 26 22 52 32 62 24 1
-1 19 10 40 24 41 28 87 83 87 105 0 8 19 32 43 54 23 22 61 58 85 81 35 34
45 38 57 28 8 -7 15 -18 15 -26 0 -7 10 -20 22 -28 86 -60 180 70 181 249 0
32 7 47 38 78 l38 40 6 -39 c6 -39 34 -114 42 -114 17 0 43 24 43 40 0 10 4
21 8 24 7 4 8 -145 1 -180 -1 -5 -1 -22 0 -39 1 -24 4 -27 11 -14 12 21 27
165 33 322 2 48 -1 57 -15 57 -22 0 -21 57 1 70 9 5 13 10 9 10 -5 0 9 17 30
38 38 39 158 172 192 213 11 13 25 31 33 39 7 8 31 37 53 65 21 27 43 54 47
60 82 101 202 296 244 394 15 36 32 69 38 73 5 4 7 8 3 8 -4 0 4 31 16 68 24
68 42 149 38 166 -2 4 1 13 6 20 14 19 7 146 -14 255 -2 8 -20 49 -40 90 -60
121 -180 231 -334 305 -29 14 -60 26 -67 26 -7 0 -13 5 -13 12 0 6 -2 9 -5 6
-5 -5 -64 11 -140 37 -12 4 -7 -2 10 -14z m-514 -871 c5 0 9 -6 9 -12 0 -7 23
-48 50 -91 28 -43 50 -80 50 -83 0 -3 -8 -4 -17 -2 -11 2 -23 -8 -33 -29 l-15
-32 -33 69 c-19 37 -49 85 -68 105 -37 41 -42 50 -19 41 31 -11 45 5 46 53 l1
46 10 -32 c6 -18 15 -33 19 -33z m244 -294 c48 -107 50 -110 36 -102 -5 3 -12
-4 -15 -17 l-7 -22 -11 25 c-5 14 -15 36 -21 50 -6 14 -11 27 -12 30 -5 18
-32 67 -42 78 -17 18 -16 32 2 32 9 0 12 6 8 16 -4 11 -2 15 6 13 6 -2 32 -49
56 -103z m-171 -118 c-3 -4 -1 -15 4 -25 5 -10 24 -49 43 -87 44 -90 43 -88
28 -85 -23 5 -59 -20 -70 -48 -12 -31 -19 -26 -26 18 -5 37 -43 122 -55 127
-4 2 -8 10 -8 18 0 8 -6 17 -14 20 -23 9 -28 33 -5 27 34 -9 64 5 78 38 10 22
16 27 22 18 4 -7 6 -16 3 -21z m206 -178 c0 -11 -4 -20 -9 -20 -5 0 -7 9 -4
20 3 11 7 20 9 20 2 0 4 -9 4 -20z m122 -530 c-6 -41 -12 -38 -12 6 0 19 4 33
8 30 5 -3 7 -19 4 -36z m-9 -60 c-3 -12 -8 -19 -11 -16 -5 6 5 36 12 36 2 0 2
-9 -1 -20z"/>
<path d="M5850 8524 c0 -7 74 -79 124 -121 68 -58 146 -106 146 -89 0 13 -30
58 -31 46 0 -9 -4 -7 -11 8 -6 12 -17 22 -24 22 -7 0 -14 3 -16 8 -6 14 -169
132 -182 132 -3 0 -6 -3 -6 -6z"/>
<path d="M5501 8507 c-51 -51 83 -194 202 -214 23 -3 37 0 49 14 16 17 16 21
0 53 -42 89 -210 188 -251 147z"/>
<path d="M3740 8487 c-35 -18 -35 -59 1 -64 28 -4 79 29 79 52 0 25 -41 32
-80 12z"/>
<path d="M4108 8472 c-45 -23 -52 -67 -12 -82 37 -14 81 -3 100 24 31 49 -27
88 -88 58z"/>
<path d="M4472 8455 c-56 -25 -62 -89 -13 -125 57 -40 159 -27 182 22 33 73
-80 143 -169 103z"/>
<path d="M4858 8406 c-60 -21 -63 -107 -5 -149 56 -42 104 -53 153 -37 89 30
76 128 -24 179 -30 16 -91 19 -124 7z"/>
<path d="M5806 8402 c-17 -28 22 -94 98 -164 68 -63 131 -93 163 -79 23 10 23
12 8 48 -21 49 -33 64 -120 141 -50 45 -135 76 -149 54z"/>
<path d="M5255 8341 c-71 -20 -84 -99 -27 -159 6 -7 12 -18 12 -23 0 -5 4 -9
10 -9 5 0 26 -11 46 -25 20 -14 40 -22 44 -20 5 3 11 1 14 -4 6 -9 62 -7 95 4
19 6 47 53 42 70 -2 6 -4 15 -5 20 -8 50 -98 135 -149 141 -12 1 -22 3 -22 4
0 5 -43 5 -60 1z"/>
<path d="M6084 8276 c-24 -62 239 -328 271 -275 7 11 -31 87 -59 117 -123 135
-199 192 -212 158z"/>
<path d="M6180 8281 c0 -10 19 -25 25 -20 1 2 -3 10 -11 17 -8 7 -14 8 -14 3z"/>
<path d="M5593 8247 c-29 -13 -40 -68 -23 -116 40 -110 188 -205 268 -172 27
11 59 61 46 73 -2 2 -5 13 -7 24 -18 109 -198 230 -284 191z"/>
<path d="M6225 8234 c11 -10 26 -25 33 -33 7 -9 12 -10 12 -4 0 7 -15 22 -32
34 -24 16 -28 17 -13 3z"/>
<path d="M3260 8233 c-15 -3 -102 -134 -101 -150 2 -31 99 6 131 50 19 28 29
62 21 73 -12 18 -36 30 -51 27z"/>
<path d="M3593 8199 c-35 -10 -62 -51 -56 -81 5 -22 52 -32 88 -18 51 19 70
64 39 94 -17 18 -25 18 -71 5z"/>
<path d="M3983 8180 c-30 -12 -54 -52 -49 -81 3 -13 5 -27 5 -30 2 -15 64 -31
98 -26 42 7 90 49 88 77 -1 10 -10 30 -20 44 -16 21 -28 26 -60 25 -22 0 -50
-4 -62 -9z"/>
<path d="M6280 8186 c0 -2 8 -10 18 -17 15 -13 16 -12 3 4 -13 16 -21 21 -21
13z"/>
<path d="M4397 8156 c-65 -35 -83 -103 -41 -159 54 -71 201 -60 239 19 21 45
6 94 -37 126 -40 28 -122 35 -161 14z"/>
<path d="M5927 8120 c-74 -106 202 -398 285 -302 65 74 -100 302 -230 318 -33
4 -43 1 -55 -16z"/>
<path d="M6310 8130 c8 -5 11 -10 7 -10 -5 0 -2 -6 5 -14 7 -8 27 -37 43 -65
17 -28 33 -51 38 -51 4 0 7 -5 7 -10 0 -18 122 -150 139 -150 4 0 8 7 8 15 0
8 -4 15 -9 15 -4 0 -8 5 -8 12 0 31 -203 268 -229 268 -14 0 -14 -2 -1 -10z"/>
<path d="M4865 8112 c-40 -7 -85 -37 -99 -67 -12 -26 -13 -40 -7 -91 0 -6 16
-27 34 -46 102 -113 298 -60 273 74 -6 35 -40 80 -75 101 -33 19 -98 34 -126
29z"/>
<path d="M5245 8025 c-72 -31 -91 -97 -51 -179 29 -60 78 -100 148 -120 96
-29 179 22 180 110 1 125 -165 238 -277 189z"/>
<path d="M5655 7932 c-44 -9 -93 -87 -80 -125 3 -7 7 -25 9 -40 17 -98 129
-197 230 -203 63 -3 89 9 114 55 42 77 -1 189 -107 274 -42 34 -114 51 -166
39z"/>
<path d="M3042 7858 c-17 -21 -59 -142 -55 -155 10 -29 94 -1 125 41 27 37 32
85 12 107 -19 22 -66 25 -82 7z"/>
<path d="M3455 7833 c-45 -11 -77 -74 -53 -105 33 -42 123 -14 133 43 8 43
-31 73 -80 62z"/>
<path d="M3878 7802 c-36 -23 -48 -43 -48 -77 0 -42 29 -67 80 -71 34 -2 46 3
75 30 28 27 33 38 29 62 -3 16 -13 38 -24 48 -23 24 -82 28 -112 8z"/>
<path d="M4301 7769 c-41 -29 -49 -44 -53 -94 -4 -67 78 -131 155 -120 50 8
65 15 96 49 27 28 36 88 18 121 -12 23 -57 64 -72 66 -72 11 -107 5 -144 -22z"/>
<path d="M4794 7724 c-36 -12 -98 -69 -90 -83 2 -3 0 -15 -4 -26 -9 -25 16
-93 44 -119 40 -36 64 -46 112 -50 84 -8 148 36 159 108 19 114 -105 209 -221
170z"/>
<path d="M5235 7643 c-56 -15 -94 -65 -97 -130 -4 -108 82 -201 192 -208 89
-5 150 47 155 133 8 132 -121 237 -250 205z"/>
<path d="M5670 7542 c-88 -15 -139 -127 -104 -227 8 -22 16 -44 17 -49 5 -21
76 -90 111 -108 156 -80 285 71 209 243 -42 94 -145 156 -233 141z"/>
<path d="M2925 7450 c-9 -15 -12 -36 -20 -132 -7 -84 -6 -86 13 -81 70 18 125
128 93 184 -20 35 -72 52 -86 29z"/>
<path d="M3308 7388 c-60 -55 -22 -136 53 -113 35 12 57 45 54 83 -4 41 -4 42
-47 48 -28 5 -40 1 -60 -18z"/>
<path d="M6025 7396 c-74 -33 -95 -180 -42 -288 103 -207 324 -173 308 48 -4
51 -6 58 -34 115 -55 113 -147 162 -232 125z"/>
<path d="M3800 7382 c-8 -2 -27 -16 -42 -30 -34 -32 -36 -71 -5 -106 56 -64
157 -20 157 69 0 46 -60 82 -110 67z"/>
<path d="M4286 7363 c-2 -2 -10 -6 -18 -7 -58 -11 -101 -65 -100 -126 1 -79
60 -125 156 -121 19 1 41 14 67 40 35 35 39 44 39 90 0 28 -4 51 -10 51 -5 0
-10 5 -10 11 0 19 -28 39 -74 53 -25 8 -47 12 -50 9z"/>
<path d="M4712 7278 c-46 -22 -72 -55 -79 -102 -3 -17 -5 -33 -6 -36 -7 -37
42 -105 99 -136 33 -19 106 -11 142 15 64 45 84 136 43 192 -11 15 -21 32 -21
36 0 12 -70 43 -106 47 -17 1 -49 -6 -72 -16z"/>
<path d="M5147 7184 c-48 -32 -67 -66 -72 -128 -7 -85 36 -161 111 -192 104
-43 222 30 224 138 1 80 0 86 -15 98 -8 7 -15 16 -15 21 0 12 -32 43 -65 65
-41 27 -127 26 -168 -2z"/>
<path d="M5608 7094 c-48 -16 -76 -41 -99 -89 -39 -79 -19 -194 47 -259 90
-89 229 -59 276 59 12 33 18 133 8 143 -1 1 -3 5 -5 10 -27 98 -140 166 -227
136z"/>
<path d="M6000 6953 c-83 -31 -138 -163 -109 -263 4 -14 8 -32 10 -40 2 -8 7
-19 12 -25 39 -53 52 -67 81 -80 62 -30 107 -22 166 27 53 44 73 195 36 268
-24 46 -65 90 -96 102 -32 12 -81 18 -100 11z"/>
<path d="M3235 6910 c-24 -27 -24 -79 0 -96 60 -44 137 45 83 96 -28 26 -60
26 -83 0z"/>
<path d="M3720 6899 c0 -5 -6 -9 -14 -9 -16 0 -42 -38 -40 -60 1 -8 2 -20 3
-27 2 -23 44 -52 70 -49 64 7 93 52 71 107 -8 19 -22 30 -51 37 -22 6 -39 6
-39 1z"/>
<path d="M4210 6879 c0 -6 -4 -7 -10 -4 -10 6 -46 -10 -66 -29 -37 -38 -40
-106 -5 -154 48 -68 158 -58 199 19 17 31 9 104 -13 129 -20 22 -105 54 -105
39z"/>
<path d="M4663 6819 c-100 -21 -145 -124 -93 -212 50 -85 181 -85 237 -1 15
24 21 88 11 127 -13 54 -95 99 -155 86z"/>
<path d="M5071 6724 c-39 -16 -56 -35 -77 -82 -17 -39 -24 -101 -12 -108 4 -3
8 -14 8 -25 0 -21 77 -102 90 -94 5 3 11 1 14 -4 8 -13 78 -6 112 12 120 62
120 244 1 301 -43 20 -91 20 -136 0z"/>
<path d="M5505 6629 c-44 -12 -97 -69 -116 -124 -37 -107 12 -217 110 -246
112 -33 225 74 216 206 -3 54 -15 86 -44 119 -35 40 -111 61 -166 45z"/>
<path d="M3206 6431 c-22 -24 -20 -57 4 -81 24 -24 38 -25 68 -5 16 12 21 24
18 46 -4 37 -13 46 -48 53 -17 3 -32 -2 -42 -13z"/>
<path d="M3670 6418 c-30 -11 -40 -25 -40 -59 0 -51 72 -82 108 -46 8 9 15 29
15 46 0 47 -39 75 -83 59z"/>
<path d="M4117 6393 c-34 -9 -58 -42 -60 -82 -4 -107 129 -145 178 -51 15 28
15 41 0 88 -12 38 -66 58 -118 45z"/>
<path d="M6807 6393 c-19 -5 -59 -69 -76 -124 -17 -55 -23 -97 -23 -176 0 -58
4 -78 22 -102 19 -28 23 -29 36 -16 9 8 19 15 22 15 4 0 12 12 19 28 28 67 42
104 42 110 -1 4 0 9 1 12 13 34 20 190 9 190 -5 0 -6 6 -3 13 7 19 -28 55 -49
50z"/>
<path d="M4541 6323 c-95 -47 -63 -213 42 -213 102 0 156 130 80 196 -15 13
-32 25 -38 25 -43 6 -57 4 -84 -8z"/>
<path d="M4957 6237 c-34 -19 -69 -72 -71 -107 0 -8 3 -33 7 -55 11 -64 79
-100 152 -82 11 3 23 6 26 6 19 3 61 77 65 116 12 108 -86 175 -179 122z"/>
<path d="M6465 6160 c-19 -7 -45 -31 -71 -63 -38 -46 -71 -153 -69 -224 4
-104 65 -150 139 -104 32 20 76 72 76 90 0 5 4 11 10 13 5 2 11 14 14 28 2 14
5 25 6 25 4 0 12 46 17 99 9 104 -47 168 -122 136z"/>
<path d="M6893 6162 c-6 -4 -21 -29 -33 -56 -21 -49 -31 -86 -55 -196 -2 -8
-4 -15 -5 -15 -1 0 -3 -21 -5 -47 -3 -58 17 -65 36 -13 7 19 17 35 23 35 5 0
6 3 3 6 -3 4 -2 14 3 24 5 9 12 29 15 43 3 15 7 39 11 54 3 15 7 30 10 35 5 8
15 138 11 138 -1 0 -7 -4 -14 -8z"/>
<path d="M3238 6023 c-10 -2 -18 -7 -18 -10 0 -9 35 -68 43 -71 4 -2 7 -9 7
-17 0 -7 7 -18 15 -25 8 -7 13 -16 10 -20 -12 -20 26 -17 40 3 19 27 19 50 0
87 -12 24 -64 64 -77 59 -2 -1 -11 -3 -20 -6z"/>
<path d="M3653 5952 c-23 -15 -25 -56 -3 -80 38 -40 93 -18 84 34 -7 44 -48
67 -81 46z"/>
<path d="M6627 5934 c-64 -59 -116 -181 -118 -274 -4 -139 106 -80 176 95 59
149 25 256 -58 179z"/>
<path d="M4057 5919 c-30 -17 -39 -55 -22 -95 25 -62 101 -69 128 -12 36 74
-37 147 -106 107z"/>
<path d="M4450 5851 c-42 -41 -41 -91 0 -133 26 -25 36 -29 63 -24 46 9 77 48
75 96 -1 21 -4 43 -7 47 -14 19 -42 35 -71 39 -24 4 -36 -1 -60 -25z"/>
<path d="M6707 5716 c-64 -70 -144 -263 -120 -287 8 -8 18 -7 34 5 13 9 19 16
14 16 -6 0 -1 7 9 15 11 8 16 15 10 15 -5 0 -2 6 6 13 27 22 89 160 96 214 6
46 -12 50 -49 9z"/>
<path d="M6240 5716 c-52 -26 -114 -109 -135 -180 -19 -64 -19 -91 1 -121 60
-91 244 83 247 233 0 41 -4 55 -19 66 -32 24 -50 25 -94 2z"/>
<path d="M6409 5534 c-6 -8 -18 -14 -25 -14 -8 0 -14 -4 -14 -8 0 -5 -13 -21
-29 -38 -23 -24 -72 -103 -76 -124 -1 -3 -5 -19 -9 -37 -4 -19 -3 -40 3 -52
39 -72 234 155 216 250 -5 27 -7 29 -33 34 -11 2 -26 -3 -33 -11z"/>
<path d="M6666 5464 c-25 -42 -46 -80 -46 -84 0 -5 -4 -10 -9 -12 -10 -4 -51
-91 -45 -97 5 -5 1 -11 51 69 63 100 115 200 104 200 -5 0 -30 -34 -55 -76z"/>
<path d="M3696 5503 c-3 -3 -6 -15 -6 -25 0 -14 6 -19 22 -16 12 2 23 8 25 15
5 13 -31 36 -41 26z"/>
<path d="M4035 5478 c-22 -32 -19 -53 11 -83 19 -19 32 -24 47 -19 28 9 37 22
37 59 0 51 -67 81 -95 43z"/>
<path d="M5785 5465 c-91 -32 -170 -175 -131 -237 23 -38 93 -19 153 40 73 72
90 164 37 198 -15 10 -26 10 -59 -1z"/>
<path d="M6485 5350 c-60 -23 -193 -216 -166 -243 14 -14 44 7 100 70 81 91
120 193 66 173z"/>
<path d="M5974 5320 c-43 -20 -94 -64 -94 -82 0 -6 -3 -8 -7 -4 -4 3 -20 -20
-35 -53 -22 -48 -26 -65 -18 -85 25 -68 164 13 219 128 40 82 8 130 -65 96z"/>
<path d="M6090 5148 c-43 -25 -90 -71 -124 -122 -30 -45 -33 -73 -8 -79 19 -4
73 19 84 37 4 6 8 7 8 3 0 -12 100 104 101 117 0 6 2 19 4 29 6 29 -26 37 -65
15z"/>
<path d="M6414 5124 c-56 -57 -124 -143 -124 -155 0 -6 8 -5 20 1 11 6 24 9
29 6 5 -3 8 0 7 8 0 7 18 34 42 60 24 25 39 46 35 46 -4 0 0 5 9 10 20 12 51
70 36 70 -5 0 -30 -21 -54 -46z"/>
<path d="M5482 5073 c-18 -8 -44 -30 -57 -47 -14 -17 -30 -37 -35 -43 -19 -23
-23 -68 -6 -82 38 -31 155 55 178 132 10 32 9 40 -3 48 -20 13 -39 11 -77 -8z"/>
<path d="M6132 4982 c-84 -56 -159 -141 -146 -164 8 -14 89 38 141 90 35 35
53 61 53 77 0 14 -2 25 -3 25 -2 0 -22 -12 -45 -28z"/>
<path d="M5634 4952 c-69 -38 -148 -129 -137 -158 7 -18 41 -18 73 1 14 8 32
18 40 22 21 10 73 63 93 95 33 52 -6 75 -69 40z"/>
<path d="M6274 4908 l-19 -23 23 19 c12 11 22 21 22 23 0 8 -8 2 -26 -19z"/>
<path d="M6059 4801 c-70 -53 -115 -98 -107 -106 6 -6 115 64 148 96 77 75 52
81 -41 10z"/>
<path d="M5045 4830 c-29 -11 -62 -51 -71 -83 -6 -26 -4 -28 17 -25 26 3 62
30 83 63 18 28 0 56 -29 45z"/>
<path d="M5704 4810 c-50 -29 -72 -47 -111 -93 -61 -72 71 -31 153 48 74 70
48 97 -42 45z"/>
<path d="M5175 4734 c-38 -20 -85 -73 -79 -89 8 -19 58 3 95 41 23 23 29 36
22 48 -8 14 -11 14 -38 0z"/>
<path d="M5750 4697 c-55 -26 -150 -98 -150 -113 0 -11 62 8 100 30 97 55 139
124 50 83z"/>
<path d="M5959 4657 c-34 -24 -65 -50 -67 -58 -2 -8 3 -6 12 5 9 11 16 17 16
13 0 -4 25 11 55 34 50 38 62 49 51 49 -2 0 -32 -19 -67 -43z"/>
<path d="M5263 4642 c-39 -21 -93 -69 -93 -82 0 -22 70 2 108 38 7 6 17 12 21
12 4 0 13 11 19 25 10 21 9 25 -6 25 -9 -1 -31 -9 -49 -18z"/>
<path d="M4654 4575 c-25 -39 -12 -54 20 -22 15 15 24 32 21 37 -10 16 -24 11
-41 -15z"/>
<path d="M5664 4554 c-123 -63 -126 -93 -3 -32 67 33 112 68 86 68 -8 0 -45
-16 -83 -36z"/>
<path d="M5270 4523 c-33 -19 -58 -38 -55 -43 9 -15 130 42 139 65 7 20 -22
13 -84 -22z"/>
<path d="M4779 4533 c-28 -20 -39 -33 -39 -50 0 -20 46 5 61 33 16 31 9 38
-22 17z"/>
<path d="M4846 4467 c-38 -23 -61 -47 -45 -47 19 0 79 37 79 50 0 13 -10 12
-34 -3z"/>
<path d="M5310 4458 c-14 -6 -42 -17 -62 -26 -35 -14 -55 -36 -25 -28 11 4 46
17 57 21 3 2 15 6 27 10 12 4 24 13 27 21 3 8 4 14 3 13 -1 0 -13 -5 -27 -11z"/>
<path d="M5555 4440 c-33 -15 -53 -28 -45 -29 8 0 42 13 75 29 33 15 53 28 45
29 -8 0 -42 -13 -75 -29z"/>
<path d="M4852 4395 c-48 -26 -46 -24 -40 -30 3 -3 22 2 44 12 21 9 42 16 46
15 3 -1 11 5 18 13 17 21 -22 16 -68 -10z"/>
<path d="M5250 4379 c-8 -4 -26 -10 -40 -13 -14 -3 -34 -12 -45 -20 -17 -13
-13 -13 35 1 53 15 78 28 69 37 -2 2 -11 0 -19 -5z"/>
<path d="M5480 4370 c-9 -6 -10 -10 -3 -10 6 0 15 5 18 10 8 12 4 12 -15 0z"/>
<path d="M4852 4345 c-17 -6 -37 -16 -43 -22 -6 -6 12 -3 39 6 51 16 72 28 50
27 -7 0 -28 -5 -46 -11z"/>
<path d="M5415 4350 c-3 -5 -1 -10 4 -10 6 0 11 5 11 10 0 6 -2 10 -4 10 -3 0
-8 -4 -11 -10z"/>
<path d="M4544 4326 c-16 -14 -24 -26 -18 -26 14 0 59 39 52 46 -3 3 -19 -6
-34 -20z"/>
<path d="M4835 4300 c-3 -5 -1 -10 4 -10 6 0 11 5 11 10 0 6 -2 10 -4 10 -3 0
-8 -4 -11 -10z"/>
<path d="M4548 4293 c-10 -2 -18 -8 -18 -13 0 -5 -6 -7 -13 -5 -6 3 -18 -4
-25 -16 -11 -17 -11 -20 0 -13 7 5 20 9 28 11 8 1 16 7 18 13 2 5 7 8 10 6 4
-2 13 2 20 10 13 14 10 15 -20 7z"/>
<path d="M4790 4289 c0 -9 31 -21 38 -14 3 3 0 5 -7 5 -7 0 -10 4 -7 8 3 5 -1
9 -9 9 -8 0 -15 -4 -15 -8z"/>
<path d="M4760 4276 c-6 -8 -19 -17 -28 -19 -9 -2 -2 -3 16 -2 32 3 59 15 33
15 -7 0 -9 5 -6 10 9 15 -1 12 -15 -4z"/>
<path d="M5279 4026 c-2 -2 -22 -6 -44 -9 -159 -23 -287 -107 -350 -233 -27
-53 -30 -68 -30 -149 1 -70 6 -100 22 -135 41 -87 118 -163 206 -204 72 -33
226 -81 296 -91 53 -8 217 -56 259 -76 158 -77 86 -273 -113 -306 -60 -10
-184 -4 -230 12 -61 21 -120 62 -137 95 -7 14 -16 27 -19 30 -10 9 -40 92 -35
97 6 6 -17 32 -25 27 -3 -1 -37 -5 -75 -8 -121 -10 -199 -18 -205 -22 -6 -3 6
-66 19 -104 3 -8 6 -21 8 -28 9 -44 75 -156 108 -182 10 -8 27 -25 39 -37 38
-41 169 -99 267 -118 51 -10 296 -11 359 -2 71 10 192 51 239 81 121 76 186
193 197 356 4 65 -35 179 -85 246 -37 49 -189 144 -231 144 -10 0 -20 4 -23 9
-3 5 -18 11 -33 14 -35 6 -69 14 -93 22 -10 3 -29 8 -42 10 -94 18 -259 64
-272 77 -6 4 -17 8 -25 8 -47 1 -97 90 -79 141 12 36 70 74 134 89 57 13 172
16 219 5 82 -18 144 -74 165 -150 l12 -44 138 4 c137 3 188 14 173 38 -4 7 -8
17 -8 22 -4 55 -40 147 -71 181 -6 6 -21 25 -35 40 -48 57 -167 118 -271 139
-37 8 -322 17 -329 11z"/>
<path d="M1822 4001 c-11 -7 -12 -1394 -1 -1401 6 -4 197 -5 260 -1 15 1 16
43 15 456 l-1 456 27 -33 c15 -18 30 -41 33 -50 4 -10 11 -18 16 -18 5 0 9 -4
9 -9 0 -9 483 -735 508 -763 8 -10 11 -18 7 -18 -5 0 -4 -5 3 -12 8 -8 62 -12
167 -12 l155 -1 0 705 0 706 -140 1 c-98 1 -140 -3 -141 -11 -1 -6 -2 -211 -3
-456 0 -245 -5 -446 -10 -448 -5 -2 -14 5 -20 16 -6 11 -30 47 -53 81 -24 35
-43 65 -43 67 0 3 -6 12 -12 19 -23 26 -34 40 -35 45 -1 6 -414 633 -422 640
-3 3 -11 14 -17 25 -10 18 -22 20 -152 21 -77 1 -145 -2 -150 -5z"/>
<path d="M3343 3993 c-7 -18 4 -993 12 -1028 4 -16 7 -38 8 -47 1 -10 5 -18 9
-18 4 0 5 -6 2 -14 -3 -8 -1 -17 5 -21 6 -3 11 -15 11 -26 0 -10 5 -19 10 -19
6 0 10 -7 10 -15 0 -33 165 -174 210 -180 3 0 10 -3 15 -7 11 -7 88 -28 125
-34 74 -13 313 -11 385 3 262 49 378 178 401 445 7 83 13 929 6 959 -3 13 -26
15 -153 16 -82 0 -149 -3 -150 -6 -1 -3 -3 -215 -4 -471 -2 -256 -6 -483 -8
-505 -13 -117 -88 -187 -214 -201 -32 -4 -64 -8 -72 -9 -13 -1 -83 10 -116 19
-54 15 -65 19 -65 27 0 5 -5 9 -11 9 -31 0 -92 93 -103 155 -2 17 -5 244 -5
506 l-1 476 -151 -1 c-113 0 -152 -3 -156 -13z"/>
<path d="M6730 4000 c-5 -3 -30 -55 -55 -115 -48 -113 -70 -165 -85 -200 -25
-57 -115 -271 -116 -275 -1 -7 -21 -54 -44 -104 -11 -25 -20 -47 -20 -50 0 -2
-10 -26 -22 -53 -12 -26 -22 -50 -23 -53 0 -3 -6 -14 -12 -25 -6 -11 -12 -24
-13 -30 -4 -18 -13 -40 -37 -94 -13 -29 -25 -58 -26 -65 -1 -6 -4 -13 -7 -16
-5 -5 -29 -68 -33 -85 -1 -5 -4 -12 -7 -15 -11 -10 -90 -211 -86 -218 3 -6
264 -8 311 -3 6 1 17 18 24 39 7 20 19 51 26 67 7 17 29 71 48 120 l35 90 288
0 c159 1 296 -1 306 -3 14 -3 78 -137 80 -169 1 -7 4 -13 8 -13 3 0 14 -24 23
-52 28 -87 16 -82 201 -82 91 -1 166 1 166 2 0 2 -69 164 -154 360 -85 197
-159 371 -166 387 -7 17 -22 50 -33 75 -11 25 -39 92 -64 150 -24 58 -55 129
-69 158 -13 29 -24 55 -24 57 0 3 -9 24 -19 48 -11 23 -33 72 -49 108 l-29 66
-157 -1 c-86 0 -160 -3 -166 -6z m259 -585 c46 -115 87 -218 93 -228 5 -11 7
-22 3 -25 -3 -4 -94 -7 -201 -7 -171 0 -194 2 -194 16 0 9 3 19 7 23 4 3 8 12
9 19 1 7 35 93 74 192 40 99 79 200 87 224 16 43 16 44 28 20 7 -13 49 -118
94 -234z"/>
<path d="M5725 2364 c-69 -29 -102 -83 -106 -169 -6 -135 103 -228 207 -179
81 38 113 173 66 272 -31 65 -109 101 -167 76z m91 -50 c36 -24 54 -65 54
-122 0 -111 -61 -169 -145 -139 -49 18 -77 120 -55 197 20 68 91 99 146 64z"/>
<path d="M1866 2362 c-3 -5 -5 -85 -5 -179 0 -161 1 -171 19 -176 11 -3 21 0
21 6 4 35 4 334 1 345 -5 14 -28 16 -36 4z"/>
<path d="M1983 2362 c-6 -5 -10 -69 -11 -179 0 -157 2 -172 18 -176 24 -6 26
6 25 146 -1 64 2 117 5 117 4 0 17 -21 30 -47 13 -27 29 -55 36 -63 6 -8 27
-44 47 -80 27 -50 41 -66 61 -68 l25 -3 0 180 c0 144 -3 181 -13 181 -26 0
-32 -27 -30 -153 l1 -127 -19 30 c-10 17 -18 35 -18 40 0 6 -4 10 -9 10 -5 0
-12 9 -16 19 -10 32 -100 176 -111 178 -5 1 -15 -1 -21 -5z"/>
<path d="M2266 2360 c-11 -24 2 -35 42 -35 28 -1 47 -6 52 -15 4 -8 6 -76 5
-150 -1 -74 0 -140 2 -146 3 -7 12 -10 22 -7 16 4 18 19 19 139 0 74 1 144 1
157 1 22 5 23 51 21 45 -2 50 0 50 20 0 21 -3 22 -121 22 -66 0 -121 -3 -123
-6z"/>
<path d="M2555 2363 c-6 -2 -8 -70 -5 -180 l5 -177 113 0 c110 -1 112 -1 112
22 0 21 -3 22 -95 22 l-95 0 0 60 0 60 84 0 c75 0 84 2 89 20 6 22 9 21 -88
25 -38 1 -74 3 -78 4 -4 0 -7 25 -5 53 l3 53 87 -1 c85 -1 107 7 90 32 -6 9
-194 15 -217 7z"/>
<path d="M2839 2346 c-3 -98 0 -326 5 -335 11 -16 34 -2 39 25 2 13 0 24 -5
24 -5 0 -5 8 1 18 6 11 6 24 0 34 -6 10 -6 19 0 23 6 3 8 12 5 19 -4 11 4 13
34 12 46 -3 61 -15 98 -82 37 -67 52 -83 75 -77 18 5 17 9 -12 62 -18 31 -41
66 -52 78 -19 21 -19 21 11 37 43 22 58 72 39 129 -13 41 -42 51 -144 52 -87
1 -93 0 -94 -19z m190 -45 c22 -29 16 -65 -13 -80 -32 -17 -131 -10 -131 9 0
8 -4 20 -8 27 -4 6 -3 14 3 18 6 4 8 11 4 16 -16 26 5 37 66 35 52 -1 65 -6
79 -25z"/>
<path d="M3157 2363 c-4 -3 -7 -84 -7 -179 0 -140 3 -173 14 -177 26 -10 31
16 31 145 -1 71 2 125 6 120 12 -15 129 -224 129 -232 0 -14 41 -39 54 -34 12
5 17 346 5 358 -3 4 -12 4 -20 1 -11 -4 -14 -34 -14 -140 0 -74 -1 -135 -2
-135 -1 0 -22 37 -47 83 -26 45 -52 91 -59 102 -6 10 -22 36 -35 57 -21 36
-40 47 -55 31z"/>
<path d="M3535 2327 c-9 -23 -18 -49 -20 -58 -3 -13 -67 -206 -82 -246 -3 -8
4 -13 19 -13 22 0 27 7 39 53 l14 52 65 0 65 0 18 -52 c22 -61 71 -85 57 -28
-1 6 -3 16 -3 23 0 6 -4 12 -9 12 -4 0 -8 9 -8 20 0 11 -4 28 -10 38 -5 9 -26
64 -45 121 -39 115 -38 114 -64 118 -14 2 -23 -9 -36 -40z m42 -23 c-3 -4 0
-19 8 -35 8 -15 16 -37 18 -48 2 -11 6 -24 10 -27 4 -4 7 -14 7 -23 0 -12 -11
-16 -50 -16 -36 -1 -49 3 -46 12 4 10 25 81 32 106 1 4 2 14 3 22 0 8 6 15 13
15 6 0 9 -3 5 -6z"/>
<path d="M3700 2350 c-12 -22 0 -28 57 -26 44 1 58 -10 43 -34 -5 -8 -5 -21 0
-31 5 -9 7 -19 4 -22 -10 -10 -7 -218 2 -227 5 -5 15 -6 22 -1 16 10 24 61 9
61 -5 0 -4 7 3 15 9 11 9 15 1 15 -7 0 -9 5 -5 12 12 19 12 48 1 48 -6 0 -6 5
0 13 5 6 8 44 7 83 l-1 70 48 -2 c46 -3 66 10 51 32 -4 5 -58 10 -120 11 -99
1 -114 -1 -122 -17z"/>
<path d="M3992 2190 c-1 -165 1 -178 18 -183 25 -6 26 3 24 183 -2 190 0 175
-23 177 -17 1 -18 -9 -19 -177z"/>
<path d="M4170 2348 c-48 -33 -73 -88 -73 -162 -1 -116 60 -186 156 -181 86 5
137 75 137 188 0 26 -7 61 -15 77 -9 17 -13 30 -10 30 3 0 -3 8 -13 18 -57 57
-126 68 -182 30z m120 -35 c16 -9 34 -28 40 -42 31 -65 11 -193 -31 -206 -11
-4 -19 -10 -19 -15 0 -14 -80 0 -100 18 -65 60 -50 222 23 252 33 13 56 12 87
-7z"/>
<path d="M4453 2362 c-9 -5 -12 -56 -11 -180 0 -95 4 -174 7 -177 4 -2 13 0
21 5 11 7 15 36 16 127 1 65 2 122 3 128 1 8 81 -121 81 -131 0 -9 65 -110 78
-121 34 -28 40 -7 40 155 1 176 -2 202 -22 202 -20 0 -22 -13 -21 -152 0 -71
-1 -128 -2 -128 -2 0 -8 10 -13 23 -5 12 -21 40 -35 62 -14 22 -31 52 -37 68
-7 15 -16 27 -20 27 -4 0 -8 5 -8 10 0 14 -49 90 -58 90 -4 0 -12 -4 -19 -8z"/>
<path d="M4842 2363 c-6 -3 -10 -9 -6 -14 3 -5 1 -9 -4 -9 -5 0 -9 -6 -9 -12
0 -11 -47 -160 -69 -218 -3 -8 -5 -17 -6 -20 0 -3 -6 -20 -14 -39 -18 -43 -18
-41 9 -41 20 0 26 8 37 50 7 28 17 51 22 51 4 1 35 3 67 3 63 2 61 4 76 -54 8
-33 19 -49 35 -53 11 -3 22 -2 25 2 3 7 -18 79 -42 141 -4 8 -7 17 -8 20 -1 3
-5 13 -8 23 -7 18 -17 48 -19 57 -1 3 -11 29 -23 59 -19 51 -34 64 -63 54z
m68 -198 c0 -6 -22 -11 -50 -11 -27 0 -50 1 -50 2 0 1 6 20 14 42 8 22 12 43
9 46 -4 3 -1 6 6 6 7 0 10 3 8 8 -3 4 0 18 5 32 9 23 12 20 34 -45 12 -38 23
-75 24 -80z"/>
<path d="M5053 2362 c-10 -6 -18 -52 -13 -77 1 -5 1 -64 1 -130 0 -66 2 -127
4 -135 6 -20 176 -22 188 -2 15 24 -5 32 -77 32 l-72 0 1 151 c0 147 -6 177
-32 161z"/>
<path d="M5389 2367 c-1 -3 -1 -308 0 -337 1 -25 2 -25 93 -24 88 0 93 2 96
22 3 21 0 22 -72 22 l-76 0 -1 68 c0 37 0 108 0 157 0 83 -1 91 -19 92 -11 1
-20 1 -21 0z"/>
<path d="M6053 2363 c-51 -10 -103 -109 -98 -188 3 -47 16 -95 26 -95 5 0 9
-5 9 -11 0 -19 53 -59 80 -61 68 -4 88 -2 123 16 46 25 54 48 48 151 -1 12
-15 15 -66 15 -58 0 -65 -2 -65 -20 0 -21 8 -24 49 -20 47 4 57 -57 14 -86
-64 -42 -153 -7 -167 66 -1 3 -4 10 -7 15 -11 20 6 111 27 143 18 27 57 44 93
40 30 -3 71 -35 71 -55 0 -7 11 -13 25 -13 25 0 25 0 10 37 -9 20 -17 38 -18
38 -1 1 -13 9 -27 18 -23 16 -75 20 -127 10z"/>
<path d="M6323 2362 c-10 -6 -17 -168 -13 -329 0 -17 6 -23 23 -23 22 0 22 1
20 142 -2 242 0 229 -30 210z"/>
<path d="M6464 2353 c-30 -25 -42 -53 -39 -91 4 -47 28 -68 106 -92 65 -19 88
-38 83 -67 -1 -7 -2 -18 -3 -24 -2 -16 -64 -38 -94 -32 -29 6 -67 45 -67 70 0
10 -6 13 -16 9 -9 -3 -20 -6 -26 -6 -6 0 -6 -6 2 -15 7 -8 9 -15 6 -15 -15 0
28 -58 53 -72 35 -20 109 -17 143 6 33 22 53 82 39 119 -13 32 -57 64 -104 72
-20 4 -40 11 -43 16 -3 5 -9 7 -14 4 -14 -8 -32 33 -25 56 7 21 42 39 76 39
22 0 69 -38 69 -57 0 -17 26 -17 33 1 7 17 -26 72 -50 84 -33 16 -107 14 -129
-5z"/>
<path d="M6695 2361 c-3 -2 -5 -12 -5 -21 0 -14 9 -17 48 -16 l47 1 3 -157 c2
-156 3 -158 25 -158 22 0 22 1 21 158 l-1 158 49 -2 c51 -1 62 5 53 28 -5 11
-31 14 -121 14 -63 0 -117 -2 -119 -5z"/>
<path d="M6987 2363 c-2 -5 -4 -84 -3 -178 1 -163 2 -170 21 -173 20 -3 20 2
19 170 -2 203 0 188 -18 188 -8 0 -17 -3 -19 -7z"/>
<path d="M7160 2352 c-40 -27 -47 -36 -63 -83 -20 -59 -14 -149 14 -198 24
-43 75 -71 124 -68 60 5 115 57 115 109 0 29 -31 21 -43 -12 -13 -34 -62 -62
-98 -55 -31 6 -79 62 -80 95 -5 100 13 159 56 178 50 23 89 11 114 -35 12 -24
35 -30 46 -13 6 10 -10 46 -29 66 -37 37 -113 45 -156 16z"/>
<path d="M7440 2343 c-23 -21 -31 -37 -32 -66 -2 -51 30 -82 112 -108 54 -18
69 -27 77 -50 9 -23 7 -31 -9 -48 -10 -12 -25 -22 -33 -22 -8 -1 -21 -2 -27
-3 -30 -4 -70 18 -85 48 -20 40 -17 37 -36 30 -31 -11 2 -83 51 -108 41 -21
120 -13 149 16 68 69 30 165 -73 184 -69 13 -98 41 -83 82 5 12 10 22 11 22 2
1 20 3 40 6 45 7 76 -8 84 -41 4 -15 12 -23 25 -22 22 1 24 19 8 50 -22 39
-52 56 -101 57 -38 0 -54 -6 -78 -27z"/>
</g>
</svg>
